<svg width="235" height="65" viewBox="0 0 235 65" fill="none" xmlns="http://www.w3.org/2000/svg">
<path d="M130.43 9.06445C127.549 9.87826 125.376 11.221 123.911 13.0928C122.463 14.9482 121.738 17.4059 121.738 20.4658V25.3242C121.738 29.2793 120.013 31.2568 116.562 31.2568V34.7969C120.013 34.7969 121.738 36.7663 121.738 40.7051V45.7832C121.771 48.7617 122.495 51.1624 123.911 52.9854C125.343 54.8245 127.516 56.1592 130.43 56.9893L131.357 54.1816C127.956 53.0911 126.255 50.251 126.255 45.6611V40.7295C126.255 37.0348 124.896 34.4632 122.178 33.0146C124.896 31.5498 126.255 28.9538 126.255 25.2266V20.1973C126.304 15.7214 128.005 12.9463 131.357 11.8721L130.43 9.06445Z" fill="#FAD9FF"/>
<path d="M1.44 38.3236C1.36727 37.7418 1.33818 37.1636 1.35273 36.5891C1.36727 36.0073 1.41091 35.4691 1.48364 34.9745H2.72727L3.15273 36.6218C3.21091 36.8691 3.27636 37.0582 3.34909 37.1891C3.42182 37.3127 3.53818 37.4255 3.69818 37.5273C3.88727 37.6436 4.17818 37.7709 4.57091 37.9091C4.97091 38.0473 5.42909 38.1164 5.94545 38.1164C6.70909 38.1164 7.28727 37.9418 7.68 37.5927C8.08 37.2436 8.28 36.7818 8.28 36.2073C8.28 35.8582 8.20364 35.5636 8.05091 35.3236C7.90545 35.0764 7.69091 34.8545 7.40727 34.6582C7.12364 34.4618 6.77091 34.2727 6.34909 34.0909C5.92727 33.9091 5.44364 33.7091 4.89818 33.4909C3.92364 33.0836 3.12364 32.6255 2.49818 32.1164C1.87273 31.6 1.56 30.8436 1.56 29.8473C1.56 29.2582 1.67273 28.7418 1.89818 28.2982C2.12364 27.8473 2.43636 27.4727 2.83636 27.1745C3.24364 26.8691 3.73091 26.64 4.29818 26.4873C4.86545 26.3345 5.48727 26.2582 6.16364 26.2582C6.79636 26.2582 7.45455 26.3273 8.13818 26.4655C8.82909 26.6036 9.39636 26.7709 9.84 26.9673C9.86909 27.4909 9.86545 28.0255 9.82909 28.5709C9.79273 29.1091 9.72727 29.64 9.63273 30.1636H8.46545L8.09455 28.68C8.04364 28.4764 7.97455 28.3055 7.88727 28.1673C7.8 28.0291 7.66545 27.9055 7.48364 27.7964C7.32364 27.7018 7.11273 27.6145 6.85091 27.5345C6.59636 27.4545 6.29455 27.4109 5.94545 27.4036C5.31273 27.3964 4.78182 27.5382 4.35273 27.8291C3.93091 28.12 3.72 28.5709 3.72 29.1818C3.72 29.5527 3.8 29.8655 3.96 30.12C4.12727 30.3673 4.34545 30.5818 4.61455 30.7636C4.88364 30.9455 5.18909 31.1055 5.53091 31.2436C5.88 31.3818 6.23636 31.52 6.6 31.6582C7.10182 31.8473 7.58909 32.0545 8.06182 32.28C8.53455 32.5055 8.94909 32.7709 9.30545 33.0764C9.66909 33.3818 9.96 33.7418 10.1782 34.1564C10.4036 34.5709 10.5164 35.0618 10.5164 35.6291C10.5164 36.2109 10.3964 36.7309 10.1564 37.1891C9.92364 37.64 9.59273 38.0218 9.16364 38.3345C8.74182 38.64 8.23273 38.8727 7.63636 39.0327C7.04 39.1927 6.38545 39.2727 5.67273 39.2727C4.80727 39.2727 4.00364 39.1709 3.26182 38.9673C2.52727 38.7636 1.92 38.5491 1.44 38.3236ZM17.0602 37.7127C17.5838 37.7127 18.1147 37.6145 18.6529 37.4182C19.1911 37.2145 19.6492 36.9564 20.0274 36.6436V33.7309L17.9438 33.9164C17.0638 33.9891 16.3874 34.1891 15.9147 34.5164C15.4492 34.8436 15.2165 35.3418 15.2165 36.0109C15.2165 36.5491 15.3656 36.9673 15.6638 37.2655C15.9692 37.5636 16.4347 37.7127 17.0602 37.7127ZM22.1002 39.1855C21.5765 39.1855 21.1474 39.0545 20.8129 38.7927C20.4783 38.5236 20.2456 38.1345 20.1147 37.6255C19.6565 38.12 19.0856 38.5164 18.402 38.8145C17.7183 39.1055 16.9874 39.2509 16.2092 39.2509C15.7147 39.2509 15.2529 39.1855 14.8238 39.0545C14.3947 38.9236 14.0238 38.7345 13.7111 38.4873C13.4056 38.2327 13.162 37.92 12.9802 37.5491C12.8056 37.1709 12.7183 36.7418 12.7183 36.2618C12.7183 35.6291 12.8638 35.0982 13.1547 34.6691C13.4456 34.24 13.8202 33.8945 14.2783 33.6327C14.7438 33.3709 15.2602 33.1745 15.8274 33.0436C16.402 32.9127 16.9656 32.8255 17.5183 32.7818L20.0274 32.5745V31.1018C20.0274 29.9818 19.802 29.1927 19.3511 28.7345C18.9074 28.2764 18.2274 28.0473 17.3111 28.0473C16.6202 28.0473 15.9656 28.1636 15.3474 28.3964C14.7365 28.6218 14.1692 28.9782 13.6456 29.4655L13.0892 28.9091C13.2274 28.4945 13.4529 28.1273 13.7656 27.8073C14.0783 27.48 14.4456 27.2073 14.8674 26.9891C15.2965 26.7709 15.7765 26.6073 16.3074 26.4982C16.8383 26.3818 17.3911 26.3236 17.9656 26.3236C19.4129 26.3236 20.5002 26.6909 21.2274 27.4255C21.9547 28.1527 22.3183 29.2691 22.3183 30.7745V36.9491C22.3183 37.1818 22.3692 37.3527 22.4711 37.4618C22.5802 37.5636 22.7365 37.6255 22.9402 37.6473L24.1947 37.7564V38.7927C24.0129 38.8582 23.7038 38.9382 23.2674 39.0327C22.8383 39.1345 22.4492 39.1855 22.1002 39.1855ZM30.2993 39.1855L26.1211 28.4836C26.0629 28.3309 25.9793 28.2109 25.8702 28.1236C25.7683 28.0291 25.6374 27.9564 25.4774 27.9055L24.6593 27.6764V26.5964H30.5065V27.6764L28.6083 28.0036L31.8047 36.8945L34.8374 28.0145L32.972 27.6764V26.5964H37.7065V27.6764L36.8883 27.9055C36.7283 27.9491 36.5902 28.0145 36.4738 28.1018C36.3647 28.1891 36.2847 28.3127 36.2338 28.4727L32.3502 39.1855H30.2993ZM44.718 27.5018C43.9326 27.5018 43.2817 27.7745 42.7653 28.32C42.249 28.8582 41.9144 29.72 41.7617 30.9055H47.249C47.2562 30.8255 47.2635 30.7455 47.2708 30.6655C47.278 30.5782 47.2817 30.4873 47.2817 30.3927C47.2817 29.5418 47.0599 28.8473 46.6162 28.3091C46.1726 27.7709 45.5399 27.5018 44.718 27.5018ZM49.5726 36.2945C49.2817 37.1745 48.7144 37.8909 47.8708 38.4436C47.0271 38.9891 45.9799 39.2618 44.729 39.2618C43.798 39.2618 42.9835 39.1055 42.2853 38.7927C41.5944 38.4727 41.0199 38.0327 40.5617 37.4727C40.1108 36.9127 39.7726 36.2436 39.5471 35.4655C39.3217 34.6873 39.209 33.84 39.209 32.9236C39.209 31.8836 39.3471 30.9491 39.6235 30.12C39.8999 29.2909 40.2926 28.5927 40.8017 28.0255C41.3108 27.4509 41.9253 27.0145 42.6453 26.7164C43.3653 26.4109 44.1653 26.2582 45.0453 26.2582C45.7217 26.2582 46.3399 26.3527 46.8999 26.5418C47.4599 26.7236 47.9399 26.9927 48.3399 27.3491C48.7399 27.7055 49.049 28.1527 49.2671 28.6909C49.4926 29.2291 49.6053 29.8509 49.6053 30.5564C49.6053 30.76 49.5944 31.0073 49.5726 31.2982C49.5508 31.5818 49.5217 31.8364 49.4853 32.0618H41.6744C41.6744 32.1127 41.6744 32.1673 41.6744 32.2255C41.6744 32.2836 41.6744 32.3418 41.6744 32.4C41.6744 33.3818 41.769 34.2109 41.958 34.8873C42.1471 35.5564 42.4053 36.0945 42.7326 36.5018C43.0599 36.9018 43.449 37.1891 43.8999 37.3636C44.3508 37.5382 44.838 37.6255 45.3617 37.6255C46.0744 37.6255 46.7326 37.4655 47.3362 37.1455C47.9471 36.8255 48.4308 36.3927 48.7871 35.8473L49.5726 36.2945ZM69.3667 39H61.5231V37.8873L63.6285 37.4945C63.8176 37.4655 63.9631 37.3964 64.0649 37.2873C64.1667 37.1782 64.2176 37.0291 64.2176 36.84V32.4655L59.3194 23.9345C59.2394 23.7964 59.1449 23.6873 59.0358 23.6073C58.9267 23.5273 58.7922 23.4691 58.6322 23.4327L57.2576 23.0945V21.96H63.9231V23.0945L61.9158 23.4982L65.9085 30.7091L69.5958 23.4873L67.5558 23.0945V21.96H73.174V23.0945L71.8322 23.4C71.6722 23.4364 71.534 23.4945 71.4176 23.5745C71.3013 23.6473 71.2067 23.7564 71.134 23.9018L66.6722 32.4764V36.84C66.6722 37.0291 66.7194 37.1782 66.814 37.2873C66.9158 37.3964 67.0649 37.4655 67.2613 37.4945L69.3667 37.8873V39ZM73.0394 32.8364C73.0394 31.6945 73.1957 30.7055 73.5085 29.8691C73.8285 29.0327 74.2575 28.3491 74.7957 27.8182C75.3339 27.2873 75.9666 26.8945 76.6939 26.64C77.4285 26.3855 78.2066 26.2582 79.0285 26.2582C79.9957 26.2582 80.8321 26.4145 81.5375 26.7273C82.2503 27.0327 82.8321 27.4655 83.283 28.0255C83.7412 28.5782 84.0794 29.2545 84.2975 30.0545C84.5157 30.8473 84.6248 31.7273 84.6248 32.6945C84.6248 33.8364 84.4648 34.8255 84.1448 35.6618C83.8321 36.4909 83.4066 37.1709 82.8685 37.7018C82.3303 38.2327 81.6939 38.6255 80.9594 38.88C80.2248 39.1345 79.4466 39.2618 78.6248 39.2618C77.6575 39.2618 76.8175 39.1091 76.1048 38.8036C75.3994 38.4909 74.8212 38.0582 74.3703 37.5055C73.9194 36.9455 73.5848 36.2691 73.3666 35.4764C73.1485 34.6764 73.0394 33.7964 73.0394 32.8364ZM82.0394 32.9127C82.0394 32.0909 81.9848 31.3455 81.8757 30.6764C81.7739 30.0073 81.5957 29.44 81.3412 28.9745C81.0866 28.5018 80.7485 28.1382 80.3266 27.8836C79.9048 27.6291 79.3775 27.5018 78.7448 27.5018C77.683 27.5018 76.8939 27.9055 76.3775 28.7127C75.8685 29.52 75.6139 30.8182 75.6139 32.6073C75.6139 33.4218 75.6648 34.1636 75.7666 34.8327C75.8757 35.5018 76.0539 36.0727 76.3012 36.5455C76.5557 37.0109 76.8939 37.3745 77.3157 37.6364C77.7448 37.8909 78.2794 38.0182 78.9194 38.0182C79.9739 38.0182 80.7557 37.6145 81.2648 36.8073C81.7812 35.9927 82.0394 34.6945 82.0394 32.9127ZM98.178 39.1855C97.6035 39.1855 97.1562 39.0364 96.8362 38.7382C96.5162 38.44 96.2944 38.0545 96.1708 37.5818C95.6908 38.0764 95.138 38.48 94.5126 38.7927C93.8871 39.0982 93.1453 39.2509 92.2871 39.2509C90.9271 39.2509 89.938 38.8764 89.3198 38.1273C88.7089 37.3709 88.4035 36.2291 88.4035 34.7018V28.8436C88.4035 28.6618 88.3562 28.5127 88.2617 28.3964C88.1744 28.2727 88.0326 28.1964 87.8362 28.1673L86.4726 27.9273V26.8582C87.0762 26.6836 87.7308 26.5564 88.4362 26.4764C89.1417 26.3891 89.7926 26.3382 90.3889 26.3236L90.738 26.6727V34.2982C90.738 35.4618 90.9053 36.3164 91.2398 36.8618C91.5744 37.4073 92.1998 37.68 93.1162 37.68C93.6544 37.68 94.1708 37.5927 94.6653 37.4182C95.1671 37.2436 95.6362 36.9745 96.0726 36.6109V28.8436C96.0726 28.6545 96.0217 28.5018 95.9198 28.3855C95.8253 28.2618 95.6835 28.1855 95.4944 28.1564L93.8689 27.8945V26.8255C94.4871 26.6655 95.1853 26.5418 95.9635 26.4545C96.7417 26.3673 97.4398 26.3236 98.058 26.3236L98.4071 26.6727V36.9382C98.4071 37.1927 98.4653 37.3709 98.5817 37.4727C98.698 37.5673 98.8508 37.6255 99.0398 37.6473L100.283 37.7564V38.7927C100.043 38.8727 99.7198 38.9564 99.3126 39.0436C98.9053 39.1382 98.5271 39.1855 98.178 39.1855ZM109.205 37.92V39H102.114V37.8873L103.456 37.68C103.645 37.6509 103.79 37.5818 103.892 37.4727C104.001 37.3564 104.056 37.2036 104.056 37.0145V28.9309C104.056 28.7127 104.009 28.5418 103.914 28.4182C103.827 28.2945 103.678 28.2182 103.467 28.1891L101.961 27.9709V26.9018C102.536 26.7273 103.158 26.5891 103.827 26.4873C104.496 26.3855 105.114 26.3309 105.681 26.3236L106.052 26.6727L106.303 28.6691C106.529 28.3564 106.798 28.0545 107.11 27.7636C107.423 27.4727 107.758 27.2182 108.114 27C108.47 26.7745 108.845 26.5964 109.238 26.4655C109.638 26.3273 110.034 26.2582 110.427 26.2582C110.652 26.2582 110.91 26.2836 111.201 26.3345C111.492 26.3855 111.729 26.4582 111.91 26.5527C111.961 27.1636 111.961 27.8545 111.91 28.6255C111.867 29.3964 111.779 30.0982 111.649 30.7309H110.503L110.187 29.04C110.136 28.8 110.052 28.6327 109.936 28.5382C109.827 28.4436 109.663 28.3964 109.445 28.3964C108.936 28.3891 108.412 28.4909 107.874 28.7018C107.343 28.9127 106.849 29.2473 106.39 29.7055V37.0145C106.39 37.2109 106.441 37.3673 106.543 37.4836C106.652 37.5927 106.805 37.6582 107.001 37.68L109.205 37.92ZM133.129 38.3236C133.057 37.7418 133.028 37.1636 133.042 36.5891C133.057 36.0073 133.1 35.4691 133.173 34.9745H134.417L134.842 36.6218C134.9 36.8691 134.966 37.0582 135.039 37.1891C135.111 37.3127 135.228 37.4255 135.388 37.5273C135.577 37.6436 135.868 37.7709 136.26 37.9091C136.66 38.0473 137.119 38.1164 137.635 38.1164C138.399 38.1164 138.977 37.9418 139.369 37.5927C139.769 37.2436 139.969 36.7818 139.969 36.2073C139.969 35.8582 139.893 35.5636 139.74 35.3236C139.595 35.0764 139.38 34.8545 139.097 34.6582C138.813 34.4618 138.46 34.2727 138.039 34.0909C137.617 33.9091 137.133 33.7091 136.588 33.4909C135.613 33.0836 134.813 32.6255 134.188 32.1164C133.562 31.6 133.249 30.8436 133.249 29.8473C133.249 29.2582 133.362 28.7418 133.588 28.2982C133.813 27.8473 134.126 27.4727 134.526 27.1745C134.933 26.8691 135.42 26.64 135.988 26.4873C136.555 26.3345 137.177 26.2582 137.853 26.2582C138.486 26.2582 139.144 26.3273 139.828 26.4655C140.519 26.6036 141.086 26.7709 141.529 26.9673C141.559 27.4909 141.555 28.0255 141.519 28.5709C141.482 29.1091 141.417 29.64 141.322 30.1636H140.155L139.784 28.68C139.733 28.4764 139.664 28.3055 139.577 28.1673C139.489 28.0291 139.355 27.9055 139.173 27.7964C139.013 27.7018 138.802 27.6145 138.54 27.5345C138.286 27.4545 137.984 27.4109 137.635 27.4036C137.002 27.3964 136.471 27.5382 136.042 27.8291C135.62 28.12 135.409 28.5709 135.409 29.1818C135.409 29.5527 135.489 29.8655 135.649 30.12C135.817 30.3673 136.035 30.5818 136.304 30.7636C136.573 30.9455 136.879 31.1055 137.22 31.2436C137.569 31.3818 137.926 31.52 138.289 31.6582C138.791 31.8473 139.279 32.0545 139.751 32.28C140.224 32.5055 140.639 32.7709 140.995 33.0764C141.359 33.3818 141.649 33.7418 141.868 34.1564C142.093 34.5709 142.206 35.0618 142.206 35.6291C142.206 36.2109 142.086 36.7309 141.846 37.1891C141.613 37.64 141.282 38.0218 140.853 38.3345C140.431 38.64 139.922 38.8727 139.326 39.0327C138.729 39.1927 138.075 39.2727 137.362 39.2727C136.497 39.2727 135.693 39.1709 134.951 38.9673C134.217 38.7636 133.609 38.5491 133.129 38.3236ZM150.473 37.8873V39H144.419V37.8873L145.761 37.68C145.95 37.6509 146.095 37.5782 146.197 37.4618C146.306 37.3455 146.361 37.1927 146.361 37.0036V28.8764C146.361 28.68 146.31 28.5236 146.208 28.4073C146.113 28.2909 145.971 28.2182 145.782 28.1891L144.266 27.9709V26.9018C144.855 26.72 145.484 26.5818 146.153 26.4873C146.83 26.3855 147.462 26.3309 148.051 26.3236L148.433 26.7055L148.597 28.0473C149.201 27.4073 149.881 26.9564 150.637 26.6945C151.393 26.4327 152.161 26.3018 152.939 26.3018C154.386 26.3018 155.371 26.7236 155.895 27.5673C156.419 28.4109 156.681 29.5855 156.681 31.0909V37.0145C156.681 37.2036 156.731 37.3564 156.833 37.4727C156.942 37.5818 157.088 37.6509 157.27 37.68L158.611 37.8873V39H152.568V37.8873L153.757 37.68C153.924 37.6509 154.062 37.5855 154.171 37.4836C154.288 37.3745 154.346 37.2182 154.346 37.0145V31.5164C154.346 30.3164 154.182 29.4218 153.855 28.8327C153.528 28.2364 152.891 27.9382 151.946 27.9382C151.371 27.9382 150.804 28.0255 150.244 28.2C149.684 28.3745 149.168 28.64 148.695 28.9964V37.0036C148.695 37.1927 148.746 37.3455 148.848 37.4618C148.95 37.5709 149.091 37.6436 149.273 37.68L150.473 37.8873ZM164.574 26.6727V36.9927C164.574 37.1891 164.625 37.3455 164.727 37.4618C164.829 37.5782 164.974 37.6509 165.163 37.68L166.505 37.8873V39H160.298V37.8873L161.639 37.68C161.829 37.6509 161.974 37.5782 162.076 37.4618C162.185 37.3455 162.239 37.1927 162.239 37.0036V28.8764C162.239 28.68 162.189 28.5236 162.087 28.4073C161.992 28.2909 161.85 28.2182 161.661 28.1891L160.145 27.9709V26.9018C160.77 26.7127 161.45 26.5745 162.185 26.4873C162.919 26.3927 163.599 26.3382 164.225 26.3236L164.574 26.6727ZM164.749 22.9418C164.749 23.4073 164.599 23.7891 164.301 24.0873C164.003 24.3782 163.614 24.5236 163.134 24.5236C162.654 24.5236 162.265 24.3782 161.967 24.0873C161.669 23.7891 161.519 23.4073 161.519 22.9418C161.519 22.4836 161.669 22.1091 161.967 21.8182C162.265 21.5273 162.654 21.3818 163.134 21.3818C163.614 21.3818 164.003 21.5273 164.301 21.8182C164.599 22.1091 164.749 22.4836 164.749 22.9418ZM174.576 38.0182C175.703 38.0182 176.612 37.6291 177.303 36.8509C177.994 36.0655 178.35 34.7091 178.372 32.7818C178.387 31.1455 178.125 29.9164 177.587 29.0945C177.056 28.2727 176.23 27.8618 175.11 27.8618C174.499 27.8618 173.958 27.9636 173.485 28.1673C173.012 28.3709 172.63 28.6073 172.339 28.8764V37.4836C172.594 37.6436 172.914 37.7745 173.299 37.8764C173.692 37.9709 174.118 38.0182 174.576 38.0182ZM174.75 43.3091V44.4109H168.074V43.3091L169.427 43.0909C169.616 43.0618 169.758 42.9891 169.852 42.8727C169.954 42.7636 170.005 42.6145 170.005 42.4255V28.8873C170.005 28.6982 169.958 28.5418 169.863 28.4182C169.776 28.2945 169.641 28.2182 169.459 28.1891L167.921 27.9709V26.9018C168.525 26.7273 169.15 26.5891 169.798 26.4873C170.452 26.3855 171.085 26.3309 171.696 26.3236L172.089 26.7055L172.252 27.96C172.652 27.48 173.158 27.0764 173.769 26.7491C174.387 26.4218 175.139 26.2582 176.027 26.2582C176.718 26.2582 177.358 26.3745 177.947 26.6073C178.543 26.8327 179.056 27.1855 179.485 27.6655C179.914 28.1455 180.252 28.7636 180.499 29.52C180.747 30.2691 180.87 31.16 180.87 32.1927C180.87 33.2909 180.725 34.28 180.434 35.16C180.143 36.0327 179.725 36.7709 179.179 37.3745C178.641 37.9782 177.976 38.4436 177.183 38.7709C176.398 39.0909 175.51 39.2509 174.521 39.2509C174.187 39.2509 173.823 39.2255 173.43 39.1745C173.045 39.1309 172.681 39.0582 172.339 38.9564V42.4364C172.339 42.6255 172.39 42.7745 172.492 42.8836C172.594 43 172.743 43.0691 172.939 43.0909L174.75 43.3091ZM189.429 38.0182C190.557 38.0182 191.466 37.6291 192.157 36.8509C192.848 36.0655 193.204 34.7091 193.226 32.7818C193.24 31.1455 192.978 29.9164 192.44 29.0945C191.909 28.2727 191.084 27.8618 189.964 27.8618C189.353 27.8618 188.811 27.9636 188.338 28.1673C187.866 28.3709 187.484 28.6073 187.193 28.8764V37.4836C187.448 37.6436 187.768 37.7745 188.153 37.8764C188.546 37.9709 188.971 38.0182 189.429 38.0182ZM189.604 43.3091V44.4109H182.928V43.3091L184.28 43.0909C184.469 43.0618 184.611 42.9891 184.706 42.8727C184.808 42.7636 184.858 42.6145 184.858 42.4255V28.8873C184.858 28.6982 184.811 28.5418 184.717 28.4182C184.629 28.2945 184.495 28.2182 184.313 28.1891L182.775 27.9709V26.9018C183.378 26.7273 184.004 26.5891 184.651 26.4873C185.306 26.3855 185.938 26.3309 186.549 26.3236L186.942 26.7055L187.106 27.96C187.506 27.48 188.011 27.0764 188.622 26.7491C189.24 26.4218 189.993 26.2582 190.88 26.2582C191.571 26.2582 192.211 26.3745 192.8 26.6073C193.397 26.8327 193.909 27.1855 194.338 27.6655C194.768 28.1455 195.106 28.7636 195.353 29.52C195.6 30.2691 195.724 31.16 195.724 32.1927C195.724 33.2909 195.578 34.28 195.288 35.16C194.997 36.0327 194.578 36.7709 194.033 37.3745C193.495 37.9782 192.829 38.4436 192.037 38.7709C191.251 39.0909 190.364 39.2509 189.375 39.2509C189.04 39.2509 188.677 39.2255 188.284 39.1745C187.898 39.1309 187.535 39.0582 187.193 38.9564V42.4364C187.193 42.6255 187.244 42.7745 187.346 42.8836C187.448 43 187.597 43.0691 187.793 43.0909L189.604 43.3091ZM203.683 27.5018C202.897 27.5018 202.247 27.7745 201.73 28.32C201.214 28.8582 200.879 29.72 200.727 30.9055H206.214C206.221 30.8255 206.228 30.7455 206.236 30.6655C206.243 30.5782 206.247 30.4873 206.247 30.3927C206.247 29.5418 206.025 28.8473 205.581 28.3091C205.137 27.7709 204.505 27.5018 203.683 27.5018ZM208.537 36.2945C208.247 37.1745 207.679 37.8909 206.836 38.4436C205.992 38.9891 204.945 39.2618 203.694 39.2618C202.763 39.2618 201.948 39.1055 201.25 38.7927C200.559 38.4727 199.985 38.0327 199.527 37.4727C199.076 36.9127 198.737 36.2436 198.512 35.4655C198.287 34.6873 198.174 33.84 198.174 32.9236C198.174 31.8836 198.312 30.9491 198.588 30.12C198.865 29.2909 199.257 28.5927 199.767 28.0255C200.276 27.4509 200.89 27.0145 201.61 26.7164C202.33 26.4109 203.13 26.2582 204.01 26.2582C204.687 26.2582 205.305 26.3527 205.865 26.5418C206.425 26.7236 206.905 26.9927 207.305 27.3491C207.705 27.7055 208.014 28.1527 208.232 28.6909C208.457 29.2291 208.57 29.8509 208.57 30.5564C208.57 30.76 208.559 31.0073 208.537 31.2982C208.516 31.5818 208.487 31.8364 208.45 32.0618H200.639C200.639 32.1127 200.639 32.1673 200.639 32.2255C200.639 32.2836 200.639 32.3418 200.639 32.4C200.639 33.3818 200.734 34.2109 200.923 34.8873C201.112 35.5564 201.37 36.0945 201.697 36.5018C202.025 36.9018 202.414 37.1891 202.865 37.3636C203.316 37.5382 203.803 37.6255 204.327 37.6255C205.039 37.6255 205.697 37.4655 206.301 37.1455C206.912 36.8255 207.396 36.3927 207.752 35.8473L208.537 36.2945ZM212.399 35.9127V28.1782L210.511 27.9382V26.9018L211.897 26.7164C212.093 26.6873 212.242 26.6218 212.344 26.52C212.446 26.4182 212.522 26.2764 212.573 26.0945L213.348 22.8873H214.701L214.733 26.5964H218.813V28.0909H214.744V35.1382C214.744 36.0836 214.904 36.7164 215.224 37.0364C215.551 37.3564 215.991 37.5164 216.544 37.5164C217.002 37.5164 217.424 37.4327 217.81 37.2655C218.202 37.0982 218.541 36.8582 218.824 36.5455L219.501 37.1673C219.173 37.8436 218.668 38.36 217.984 38.7164C217.308 39.0655 216.559 39.24 215.737 39.24C215.293 39.24 214.868 39.1891 214.461 39.0873C214.053 38.9855 213.697 38.8109 213.391 38.5636C213.093 38.3091 212.853 37.9673 212.671 37.5382C212.49 37.1091 212.399 36.5673 212.399 35.9127Z" fill="white"/>
<path d="M219.464 53.1279C222.768 52.07 224.477 49.3763 224.591 45.0469V39.6758C224.591 35.916 226.064 33.3525 229.01 31.9854C226.064 30.6507 224.591 28.0872 224.591 24.2949V19.3389C224.591 14.749 222.89 11.9089 219.488 10.8184L220.416 8.01074C223.297 8.82454 225.462 10.151 226.91 11.9902C228.359 13.8132 229.091 16.2301 229.107 19.2412V24.3682C229.107 28.2581 230.833 30.2031 234.283 30.2031V33.7432C230.833 33.7432 229.107 35.7207 229.107 39.6758V44.6074C229.107 47.6673 228.367 50.1169 226.886 51.9561C225.421 53.7952 223.264 55.1217 220.416 55.9355L219.464 53.1279Z" fill="#FAD9FF"/>
</svg>
