<svg width="256" height="33" viewBox="0 0 256 33" fill="none" xmlns="http://www.w3.org/2000/svg">
<path d="M6.48 26.135C5.328 26.135 4.221 25.973 3.159 25.649C2.115 25.307 1.296 24.884 0.702 24.38L1.566 22.868C2.16 23.336 2.907 23.723 3.807 24.029C4.707 24.317 5.643 24.461 6.615 24.461C7.911 24.461 8.865 24.263 9.477 23.867C10.107 23.453 10.422 22.877 10.422 22.139C10.422 21.617 10.251 21.212 9.909 20.924C9.567 20.618 9.135 20.393 8.613 20.249C8.091 20.087 7.398 19.934 6.534 19.79C5.382 19.574 4.455 19.358 3.753 19.142C3.051 18.908 2.448 18.521 1.944 17.981C1.458 17.441 1.215 16.694 1.215 15.74C1.215 14.552 1.71 13.58 2.7 12.824C3.69 12.068 5.067 11.69 6.831 11.69C7.749 11.69 8.667 11.816 9.585 12.068C10.503 12.302 11.259 12.617 11.853 13.013L11.016 14.552C9.846 13.742 8.451 13.337 6.831 13.337C5.607 13.337 4.68 13.553 4.05 13.985C3.438 14.417 3.132 14.984 3.132 15.686C3.132 16.226 3.303 16.658 3.645 16.982C4.005 17.306 4.446 17.549 4.968 17.711C5.49 17.855 6.21 18.008 7.128 18.17C8.262 18.386 9.171 18.602 9.855 18.818C10.539 19.034 11.124 19.403 11.61 19.925C12.096 20.447 12.339 21.167 12.339 22.085C12.339 23.327 11.817 24.317 10.773 25.055C9.747 25.775 8.316 26.135 6.48 26.135ZM20.851 11.69C22.705 11.69 24.127 12.158 25.117 13.094C26.107 14.012 26.602 15.38 26.602 17.198V26H24.766V23.786C24.334 24.524 23.695 25.1 22.849 25.514C22.021 25.928 21.031 26.135 19.879 26.135C18.295 26.135 17.035 25.757 16.099 25.001C15.163 24.245 14.695 23.246 14.695 22.004C14.695 20.798 15.127 19.826 15.991 19.088C16.873 18.35 18.268 17.981 20.176 17.981H24.685V17.117C24.685 15.893 24.343 14.966 23.659 14.336C22.975 13.688 21.976 13.364 20.662 13.364C19.762 13.364 18.898 13.517 18.07 13.823C17.242 14.111 16.531 14.516 15.937 15.038L15.073 13.607C15.793 12.995 16.657 12.527 17.665 12.203C18.673 11.861 19.735 11.69 20.851 11.69ZM20.176 24.623C21.256 24.623 22.183 24.38 22.957 23.894C23.731 23.39 24.307 22.67 24.685 21.734V19.412H20.23C17.8 19.412 16.585 20.258 16.585 21.95C16.585 22.778 16.9 23.435 17.53 23.921C18.16 24.389 19.042 24.623 20.176 24.623ZM43.4791 11.798L37.1611 26H35.1901L28.8991 11.798H30.8971L36.2161 23.894L41.5891 11.798H43.4791ZM58.1494 19.493H46.2694C46.3774 20.969 46.9444 22.166 47.9704 23.084C48.9964 23.984 50.2924 24.434 51.8584 24.434C52.7404 24.434 53.5504 24.281 54.2884 23.975C55.0264 23.651 55.6654 23.183 56.2054 22.571L57.2854 23.813C56.6554 24.569 55.8634 25.145 54.9094 25.541C53.9734 25.937 52.9384 26.135 51.8044 26.135C50.3464 26.135 49.0504 25.829 47.9164 25.217C46.8004 24.587 45.9274 23.723 45.2974 22.625C44.6674 21.527 44.3524 20.285 44.3524 18.899C44.3524 17.513 44.6494 16.271 45.2434 15.173C45.8554 14.075 46.6834 13.22 47.7274 12.608C48.7894 11.996 49.9774 11.69 51.2914 11.69C52.6054 11.69 53.7844 11.996 54.8284 12.608C55.8724 13.22 56.6914 14.075 57.2854 15.173C57.8794 16.253 58.1764 17.495 58.1764 18.899L58.1494 19.493ZM51.2914 13.337C49.9234 13.337 48.7714 13.778 47.8354 14.66C46.9174 15.524 46.3954 16.658 46.2694 18.062H56.3404C56.2144 16.658 55.6834 15.524 54.7474 14.66C53.8294 13.778 52.6774 13.337 51.2914 13.337ZM76.0297 19.466V26H74.0587V19.466L66.4987 7.1H68.6317L75.1117 17.711L81.5917 7.1H83.5897L76.0297 19.466ZM90.48 26.135C89.112 26.135 87.879 25.829 86.781 25.217C85.683 24.587 84.819 23.723 84.189 22.625C83.559 21.527 83.244 20.285 83.244 18.899C83.244 17.513 83.559 16.271 84.189 15.173C84.819 14.075 85.683 13.22 86.781 12.608C87.879 11.996 89.112 11.69 90.48 11.69C91.848 11.69 93.081 11.996 94.179 12.608C95.277 13.22 96.132 14.075 96.744 15.173C97.374 16.271 97.689 17.513 97.689 18.899C97.689 20.285 97.374 21.527 96.744 22.625C96.132 23.723 95.277 24.587 94.179 25.217C93.081 25.829 91.848 26.135 90.48 26.135ZM90.48 24.434C91.488 24.434 92.388 24.209 93.18 23.759C93.99 23.291 94.62 22.634 95.07 21.788C95.52 20.942 95.745 19.979 95.745 18.899C95.745 17.819 95.52 16.856 95.07 16.01C94.62 15.164 93.99 14.516 93.18 14.066C92.388 13.598 91.488 13.364 90.48 13.364C89.472 13.364 88.563 13.598 87.753 14.066C86.961 14.516 86.331 15.164 85.863 16.01C85.413 16.856 85.188 17.819 85.188 18.899C85.188 19.979 85.413 20.942 85.863 21.788C86.331 22.634 86.961 23.291 87.753 23.759C88.563 24.209 89.472 24.434 90.48 24.434ZM114.401 11.798V26H112.565V23.408C112.061 24.272 111.368 24.947 110.486 25.433C109.604 25.901 108.596 26.135 107.462 26.135C105.608 26.135 104.141 25.622 103.061 24.596C101.999 23.552 101.468 22.031 101.468 20.033V11.798H103.385V19.844C103.385 21.338 103.754 22.472 104.492 23.246C105.23 24.02 106.283 24.407 107.651 24.407C109.145 24.407 110.324 23.957 111.188 23.057C112.052 22.139 112.484 20.87 112.484 19.25V11.798H114.401ZM121.606 14.579C122.056 13.625 122.722 12.905 123.604 12.419C124.504 11.933 125.611 11.69 126.925 11.69V13.553L126.466 13.526C124.972 13.526 123.802 13.985 122.956 14.903C122.11 15.821 121.687 17.108 121.687 18.764V26H119.77V11.798H121.606V14.579ZM150.498 26.135C149.346 26.135 148.239 25.973 147.177 25.649C146.133 25.307 145.314 24.884 144.72 24.38L145.584 22.868C146.178 23.336 146.925 23.723 147.825 24.029C148.725 24.317 149.661 24.461 150.633 24.461C151.929 24.461 152.883 24.263 153.495 23.867C154.125 23.453 154.44 22.877 154.44 22.139C154.44 21.617 154.269 21.212 153.927 20.924C153.585 20.618 153.153 20.393 152.631 20.249C152.109 20.087 151.416 19.934 150.552 19.79C149.4 19.574 148.473 19.358 147.771 19.142C147.069 18.908 146.466 18.521 145.962 17.981C145.476 17.441 145.233 16.694 145.233 15.74C145.233 14.552 145.728 13.58 146.718 12.824C147.708 12.068 149.085 11.69 150.849 11.69C151.767 11.69 152.685 11.816 153.603 12.068C154.521 12.302 155.277 12.617 155.871 13.013L155.034 14.552C153.864 13.742 152.469 13.337 150.849 13.337C149.625 13.337 148.698 13.553 148.068 13.985C147.456 14.417 147.15 14.984 147.15 15.686C147.15 16.226 147.321 16.658 147.663 16.982C148.023 17.306 148.464 17.549 148.986 17.711C149.508 17.855 150.228 18.008 151.146 18.17C152.28 18.386 153.189 18.602 153.873 18.818C154.557 19.034 155.142 19.403 155.628 19.925C156.114 20.447 156.357 21.167 156.357 22.085C156.357 23.327 155.835 24.317 154.791 25.055C153.765 25.775 152.334 26.135 150.498 26.135ZM167.137 11.69C168.919 11.69 170.332 12.212 171.376 13.256C172.438 14.282 172.969 15.785 172.969 17.765V26H171.052V17.954C171.052 16.478 170.683 15.353 169.945 14.579C169.207 13.805 168.154 13.418 166.786 13.418C165.256 13.418 164.041 13.877 163.141 14.795C162.259 15.695 161.818 16.946 161.818 18.548V26H159.901V11.798H161.737V14.417C162.259 13.553 162.979 12.887 163.897 12.419C164.833 11.933 165.913 11.69 167.137 11.69ZM178.173 11.798H180.09V26H178.173V11.798ZM179.145 8.693C178.749 8.693 178.416 8.558 178.146 8.288C177.876 8.018 177.741 7.694 177.741 7.316C177.741 6.956 177.876 6.641 178.146 6.371C178.416 6.101 178.749 5.966 179.145 5.966C179.541 5.966 179.874 6.101 180.144 6.371C180.414 6.623 180.549 6.929 180.549 7.289C180.549 7.685 180.414 8.018 180.144 8.288C179.874 8.558 179.541 8.693 179.145 8.693ZM192.741 11.69C194.073 11.69 195.279 11.996 196.359 12.608C197.439 13.202 198.285 14.048 198.897 15.146C199.509 16.244 199.815 17.495 199.815 18.899C199.815 20.321 199.509 21.581 198.897 22.679C198.285 23.777 197.439 24.632 196.359 25.244C195.297 25.838 194.091 26.135 192.741 26.135C191.589 26.135 190.545 25.901 189.609 25.433C188.691 24.947 187.935 24.245 187.341 23.327V31.238H185.424V11.798H187.26V14.606C187.836 13.67 188.592 12.95 189.528 12.446C190.482 11.942 191.553 11.69 192.741 11.69ZM192.606 24.434C193.596 24.434 194.496 24.209 195.306 23.759C196.116 23.291 196.746 22.634 197.196 21.788C197.664 20.942 197.898 19.979 197.898 18.899C197.898 17.819 197.664 16.865 197.196 16.037C196.746 15.191 196.116 14.534 195.306 14.066C194.496 13.598 193.596 13.364 192.606 13.364C191.598 13.364 190.689 13.598 189.879 14.066C189.087 14.534 188.457 15.191 187.989 16.037C187.539 16.865 187.314 17.819 187.314 18.899C187.314 19.979 187.539 20.942 187.989 21.788C188.457 22.634 189.087 23.291 189.879 23.759C190.689 24.209 191.598 24.434 192.606 24.434ZM211.04 11.69C212.372 11.69 213.578 11.996 214.658 12.608C215.738 13.202 216.584 14.048 217.196 15.146C217.808 16.244 218.114 17.495 218.114 18.899C218.114 20.321 217.808 21.581 217.196 22.679C216.584 23.777 215.738 24.632 214.658 25.244C213.596 25.838 212.39 26.135 211.04 26.135C209.888 26.135 208.844 25.901 207.908 25.433C206.99 24.947 206.234 24.245 205.64 23.327V31.238H203.723V11.798H205.559V14.606C206.135 13.67 206.891 12.95 207.827 12.446C208.781 11.942 209.852 11.69 211.04 11.69ZM210.905 24.434C211.895 24.434 212.795 24.209 213.605 23.759C214.415 23.291 215.045 22.634 215.495 21.788C215.963 20.942 216.197 19.979 216.197 18.899C216.197 17.819 215.963 16.865 215.495 16.037C215.045 15.191 214.415 14.534 213.605 14.066C212.795 13.598 211.895 13.364 210.905 13.364C209.897 13.364 208.988 13.598 208.178 14.066C207.386 14.534 206.756 15.191 206.288 16.037C205.838 16.865 205.613 17.819 205.613 18.899C205.613 19.979 205.838 20.942 206.288 21.788C206.756 22.634 207.386 23.291 208.178 23.759C208.988 24.209 209.897 24.434 210.905 24.434ZM234.388 19.493H222.508C222.616 20.969 223.183 22.166 224.209 23.084C225.235 23.984 226.531 24.434 228.097 24.434C228.979 24.434 229.789 24.281 230.527 23.975C231.265 23.651 231.904 23.183 232.444 22.571L233.524 23.813C232.894 24.569 232.102 25.145 231.148 25.541C230.212 25.937 229.177 26.135 228.043 26.135C226.585 26.135 225.289 25.829 224.155 25.217C223.039 24.587 222.166 23.723 221.536 22.625C220.906 21.527 220.591 20.285 220.591 18.899C220.591 17.513 220.888 16.271 221.482 15.173C222.094 14.075 222.922 13.22 223.966 12.608C225.028 11.996 226.216 11.69 227.53 11.69C228.844 11.69 230.023 11.996 231.067 12.608C232.111 13.22 232.93 14.075 233.524 15.173C234.118 16.253 234.415 17.495 234.415 18.899L234.388 19.493ZM227.53 13.337C226.162 13.337 225.01 13.778 224.074 14.66C223.156 15.524 222.634 16.658 222.508 18.062H232.579C232.453 16.658 231.922 15.524 230.986 14.66C230.068 13.778 228.916 13.337 227.53 13.337ZM245.796 25.136C245.436 25.46 244.986 25.712 244.446 25.892C243.924 26.054 243.375 26.135 242.799 26.135C241.467 26.135 240.441 25.775 239.721 25.055C239.001 24.335 238.641 23.318 238.641 22.004V13.418H236.103V11.798H238.641V8.693H240.558V11.798H244.878V13.418H240.558V21.896C240.558 22.742 240.765 23.39 241.179 23.84C241.611 24.272 242.223 24.488 243.015 24.488C243.411 24.488 243.789 24.425 244.149 24.299C244.527 24.173 244.851 23.993 245.121 23.759L245.796 25.136Z" fill="white"/>
<path d="M140.67 16.388C140.67 17.054 140.571 17.549 140.373 17.873C140.175 18.197 139.851 18.44 139.401 18.602C139.851 18.764 140.175 19.007 140.373 19.331C140.571 19.655 140.67 20.15 140.67 20.816V27.485C140.67 28.925 141.354 29.645 142.722 29.645H143.451V31.238H142.452C139.986 31.238 138.753 30.041 138.753 27.647V20.789C138.753 19.871 138.348 19.412 137.538 19.412H136.62V17.792H137.538C138.348 17.792 138.753 17.333 138.753 16.415V9.557C138.753 7.163 139.986 5.966 142.452 5.966H143.451V7.559H142.722C141.354 7.559 140.67 8.279 140.67 9.719V16.388ZM254.01 17.792V19.412H253.092C252.282 19.412 251.877 19.871 251.877 20.789V27.647C251.877 30.041 250.653 31.238 248.205 31.238H247.179V29.645H247.908C249.276 29.645 249.96 28.925 249.96 27.485V20.816C249.96 20.15 250.059 19.655 250.257 19.331C250.455 19.007 250.779 18.764 251.229 18.602C250.779 18.44 250.455 18.197 250.257 17.873C250.059 17.549 249.96 17.054 249.96 16.388V9.719C249.96 8.279 249.276 7.559 247.908 7.559H247.179V5.966H248.205C250.653 5.966 251.877 7.163 251.877 9.557V16.415C251.877 17.333 252.282 17.792 253.092 17.792H254.01Z" fill="#C24332"/>
</svg>
